<svg width="834" height="204" viewBox="0 0 834 204" fill="none" xmlns="http://www.w3.org/2000/svg">
<g clip-path="url(#clip0_9_508)">
<g filter="url(#filter0_d_9_508)">
<path d="M7.15314 167.604L28.3934 143.556C31.079 150.148 35.3921 155.356 41.3329 159.181C47.2736 162.925 53.9468 164.797 61.3524 164.797C70.3042 164.797 77.3843 162.681 82.5926 158.449C87.801 154.217 90.4051 148.521 90.4051 141.359C90.4051 132.896 81.7381 124.473 64.4042 116.091C58.7889 113.405 54.3537 111.208 51.0985 109.499C35.4735 101.361 24.6499 93.4264 18.6278 85.6953C12.6056 77.8828 9.59454 68.6055 9.59454 57.8633C9.59454 43.1335 15.4132 31.0485 27.0506 21.6084C38.7694 12.0869 53.9468 7.32617 72.5829 7.32617C83.4064 7.32617 92.7245 9.23861 100.537 13.0635C108.43 16.807 115.388 22.707 121.411 30.7637L98.828 52.3701C96.1424 47.1618 92.5617 43.2962 88.0858 40.7734C83.6913 38.1693 78.3609 36.8672 72.0946 36.8672C64.5262 36.8672 58.4227 38.7796 53.784 42.6045C49.1454 46.348 46.826 51.2308 46.826 57.2529C46.826 66.693 56.022 75.3193 74.4139 83.1318C78.076 84.6781 80.8836 85.8988 82.8368 86.7939C97.9735 93.7113 109.163 101.523 116.406 110.231C123.73 118.939 127.392 128.867 127.392 140.016C127.392 156.781 121.655 170.168 110.18 180.177C98.7873 190.106 83.4471 195.07 64.16 195.07C50.4881 195.07 38.7694 192.71 29.0038 187.99C19.2381 183.27 11.9546 176.475 7.15314 167.604ZM155.712 1.10059H190.502V123.537L234.936 70.5586H276.684L228.466 123.537L281.445 190.309H238.476L190.502 126.833V190.309H155.712V1.10059ZM298.413 190.309V70.5586H333.081V190.309H298.413ZM369.702 190.309V1.10059H404.37V190.309H369.702ZM440.991 190.309V1.10059H475.659V190.309H440.991ZM667.675 11.5986V122.804C667.675 147.056 661.287 165.163 648.51 177.126C635.734 189.089 616.487 195.07 590.771 195.07C564.648 195.07 545.198 189.089 532.421 177.126C519.645 165.163 513.256 147.056 513.256 122.804V11.5986H551.22V116.823C551.22 131.553 554.475 142.661 560.986 150.148C567.496 157.554 577.221 161.257 590.161 161.257C603.181 161.257 613.028 157.513 619.702 150.026C626.375 142.539 629.711 131.471 629.711 116.823V11.5986H667.675ZM745.8 92.2871H751.293C761.71 92.2871 769.278 90.1305 773.998 85.8174C778.719 81.5042 781.079 74.5869 781.079 65.0654C781.079 56.2764 778.719 49.888 773.998 45.9004C769.278 41.8314 761.71 39.7969 751.293 39.7969H745.8V92.2871ZM707.348 190.309V11.5986H751.293C774.731 11.5986 792.024 16.0745 803.173 25.0264C814.404 33.9782 820.019 47.8128 820.019 66.5303C820.019 83.8643 814.363 97.4548 803.051 107.301C791.821 117.148 776.236 122.072 756.298 122.072H745.8V190.309H707.348Z" fill="white"/>
<g clip-path="url(#clip1_9_508)">
<g filter="url(#filter1_d_9_508)">
<path d="M295.598 50.4268L315.644 1.53516H323.903L344.033 50.4268H334.943L319.836 13.2808L304.687 50.4268H295.598Z" fill="white"/>
</g>
</g>
</g>
</g>
<defs>
<filter id="filter0_d_9_508" x="7.15314" y="1.10059" width="832.866" height="201.97" filterUnits="userSpaceOnUse" color-interpolation-filters="sRGB">
<feFlood flood-opacity="0" result="BackgroundImageFix"/>
<feColorMatrix in="SourceAlpha" type="matrix" values="0 0 0 0 0 0 0 0 0 0 0 0 0 0 0 0 0 0 127 0" result="hardAlpha"/>
<feOffset dx="16" dy="4"/>
<feGaussianBlur stdDeviation="2"/>
<feComposite in2="hardAlpha" operator="out"/>
<feColorMatrix type="matrix" values="0 0 0 0 1 0 0 0 0 1 0 0 0 0 1 0 0 0 0.25 0"/>
<feBlend mode="normal" in2="BackgroundImageFix" result="effect1_dropShadow_9_508"/>
<feBlend mode="normal" in="SourceGraphic" in2="effect1_dropShadow_9_508" result="shape"/>
</filter>
<filter id="filter1_d_9_508" x="295.598" y="1.53516" width="68.435" height="56.8916" filterUnits="userSpaceOnUse" color-interpolation-filters="sRGB">
<feFlood flood-opacity="0" result="BackgroundImageFix"/>
<feColorMatrix in="SourceAlpha" type="matrix" values="0 0 0 0 0 0 0 0 0 0 0 0 0 0 0 0 0 0 127 0" result="hardAlpha"/>
<feOffset dx="16" dy="4"/>
<feGaussianBlur stdDeviation="2"/>
<feComposite in2="hardAlpha" operator="out"/>
<feColorMatrix type="matrix" values="0 0 0 0 1 0 0 0 0 1 0 0 0 0 1 0 0 0 0.25 0"/>
<feBlend mode="normal" in2="BackgroundImageFix" result="effect1_dropShadow_9_508"/>
<feBlend mode="normal" in="SourceGraphic" in2="effect1_dropShadow_9_508" result="shape"/>
</filter>
<clipPath id="clip0_9_508">
<rect width="834" height="203" fill="white" transform="translate(0 0.206299)"/>
</clipPath>
<clipPath id="clip1_9_508">
<rect width="70" height="58" fill="white" transform="translate(295 1.10059)"/>
</clipPath>
</defs>
</svg>
